<?xml version="1.0" standalone="no" ?>
<!DOCTYPE svg PUBLIC "-//W3C//DTD SVG 20010904//EN"
  "http://www.w3.org/TR/2001/REC-SVG-20010904/DTD/svg10.dtd">
<svg
  version="1.0"
  xmlns="http://www.w3.org/2000/svg"
  width="448.000000pt"
  height="325.000000pt"
  viewBox="0 0 448.000000 325.000000"
  preserveAspectRatio="xMidYMid meet"
>

<g transform="translate(0.000000,325.000000) scale(0.100000,-0.100000)" fill="#000000" stroke="none">
<path d="M163 3195 c-7 -20 6 -33 16 -16 10 15 43 11 48 -6 3 -7 -12 -19 -31
-27 -30 -12 -36 -20 -36 -44 0 -24 5 -31 25 -36 46 -12 65 8 65 67 0 29 -5 58
-12 65 -17 17 -67 15 -75 -3z m67 -74 c0 -21 -13 -41 -26 -41 -20 0 -30 30
-13 41 18 11 39 11 39 0z" />
<path d="M815 2730 c-3 -5 -1 -10 4 -10 6 0 11 5 11 10 0 6 -2 10 -4 10 -3 0 -8 -4 -11 -10z" />
<path d="M182 2705 c0 -16 2 -22 5 -12 2 9 2 23 0 30 -3 6 -5 -1 -5 -18z" />
<path d="M243 2714 c-3 -8 -2 -19 3 -24 5 -5 9 1 9 16 0 28 -3 30 -12 8z" />
<path d="M276 2699 c3 -44 14 -49 14 -6 0 21 -4 37 -8 37 -5 0 -7 -14 -6 -31z" />
<path d="M343 2714 c-3 -8 -1 -20 4 -25 5 -5 9 1 9 16 0 29 -4 32 -13 9z" />
<path d="M781 2716 c-9 -11 -9 -16 1 -22 7 -4 10 -4 6 1 -4 4 -3 14 3 22 6 7 9 13 6 13 -2 0 -10 -6 -16 -14z" />
<path d="M854 2715 c-3 -8 -4 -20 -2 -27 3 -7 7 -1 10 15 6 29 1 36 -8 12z" />
<path d="M885 2705 c0 -13 3 -21 8 -18 4 2 7 10 7 18 0 8 -3 16 -7 18 -5 3 -8 -5 -8 -18z" />
<path d="M1062 2710 c0 -14 2 -19 5 -12 2 6 2 18 0 25 -3 6 -5 1 -5 -13z" />
<path d="M1101 2714 c0 -11 3 -14 6 -6 3 7 2 16 -1 19 -3 4 -6 -2 -5 -13z" />
<path d="M1122 2705 c0 -16 2 -22 5 -12 2 9 2 23 0 30 -3 6 -5 -1 -5 -18z" />
<path d="M375 2710 c-3 -5 -1 -10 4 -10 6 0 11 5 11 10 0 6 -2 10 -4 10 -3 0 -8 -4 -11 -10z" />
<path d="M221 2694 c0 -11 3 -14 6 -6 3 7 2 16 -1 19 -3 4 -6 -2 -5 -13z" />
<path d="M611 2694 c0 -11 3 -14 6 -6 3 7 2 16 -1 19 -3 4 -6 -2 -5 -13z" />
<path d="M708 2703 c6 -2 18 -2 25 0 6 3 1 5 -13 5 -14 0 -19 -2 -12 -5z" />
<path d="M945 2699 c-4 -6 -4 -13 -1 -16 3 -4 6 -1 6 5 0 6 8 13 18 15 15 4 15 5 0 6 -9 0 -20 -4 -23 -10z" />
<path d="M3848 2227 c-32 -15 -58 -32 -58 -37 0 -6 -8 -10 -18 -10 -53 0 -68 
-82 -21 -109 24 -13 29 -13 53 2 18 12 26 26 26 47 0 16 -4 31 -8 34 -4 2 -6
-10 -4 -29 5 -42 -26 -64 -64 -46 -42 19 -28 91 18 91 10 0 18 -4 18 -10 0 -5
13 -1 30 8 28 16 31 16 57 0 15 -9 29 -26 31 -37 2 -12 9 -18 17 -15 25 10 29
-19 5 -38 -12 -10 -18 -18 -14 -18 26 0 62 48 67 88 3 23 1 42 -3 42 -4 0 -6
9 -3 20 4 16 2 19 -12 14 -14 -6 -16 -3 -10 15 6 21 5 21 -14 9 -14 -8 -24 -9
-29 -3 -4 6 -29 0 -64 -18z" />
<path d="M3850 1993 c-39 -14 -46 -31 -39 -90 12 -103 33 -183 47 -183 20 0
65 25 86 49 15 16 19 35 18 88 -2 81 4 103 26 103 12 0 7 7 -13 20 -36 24 -52
25 -72 5 -13 -14 -17 -14 -27 -2 -6 8 -18 12 -26 10z" />
<path d="M3285 1890 c-3 -5 1 -10 9 -10 9 0 16 5 16 10 0 6 -4 10 -9 10 -6 0
-13 -4 -16 -10z" />
<path d="M3950 1719 c-53 -28 -54 -29 -23 -29 44 0 83 19 83 42 0 10 -1 18 -2 17 -2 0 -28 -14 -58 -30z" />
<path d="M4005 1615 c-17 -13 -17 -17 -5 -29 12 -12 26 -13 65 -5 45 8 75 23 64 32 -2 3 -26 7 -54 10 -36 5 -55 2 -70 -8z" />
<path d="M3357 1214 c-4 -4 -7 -17 -6 -28 0 -12 3 -15 6 -8 4 10 9 9 24 -4 18 
-16 19 -16 18 17 0 26 -2 30 -8 14 -7 -18 -8 -18 -17 -2 -6 10 -13 14 -17 11z" />
<path d="M3412 1190 c0 -19 2 -27 5 -17 2 9 2 25 0 35 -3 9 -5 1 -5 -18z" />
<path d="M3985 1210 c-3 -5 -1 -18 4 -27 9 -16 10 -14 11 10 0 28 -5 34 -15 17z" />
<path d="M3431 1182 l0 -27 11 25 11 25 8 -25 8 -25 -2 24 c-3 35 -37 38 -36 3z" />
<path d="M3483 1193 c-3 -8 -3 -17 1 -20 3 -4 6 2 6 12 0 10 3 15 8 11 12 -13 
8 -31 -8 -38 -11 -5 -9 -7 8 -7 18 -1 22 4 22 27 0 30 -27 41 -37 15z" />
<path d="M3531 1194 c0 -11 2 -23 5 -27 11 -10 34 5 34 22 -1 14 -2 14 -15 -2
-13 -18 -14 -17 -18 5 -4 20 -4 21 -6 2z" />
<path d="M3600 1189 c0 -11 4 -18 10 -14 5 3 7 12 3 20 -7 21 -13 19 -13 -6z" />
<path d="M3651 1202 c-6 -2 -10 -13 -10 -25 1 -17 2 -18 6 -4 2 9 8 17 13 17
5 0 11 -8 13 -17 3 -13 5 -11 7 7 1 23 2 23 10 5 8 -19 9 -19 9 2 1 21 -15 26
-48 15z" />
<path d="M3722 1197 c-13 -15 1 -42 17 -33 13 9 15 33 2 40 -5 3 -13 0 -19 -7z" />
<path d="M3762 1185 c0 -16 2 -22 5 -12 2 9 2 23 0 30 -3 6 -5 -1 -5 -18z" />
<path d="M3781 1203 c0 -4 4 -17 9 -28 8 -19 9 -19 9 2 1 12 -3 25 -9 28 -5 3
-10 3 -9 -2z" />
<path d="M3814 1196 c-6 -17 2 -36 17 -36 12 0 12 37 -1 45 -6 3 -13 -1 -16 -9z" />
<path d="M3862 1205 c4 -5 3 -14 -3 -21 -7 -8 -6 -14 2 -20 8 -5 9 -3 4 6 -6
10 -4 12 9 7 13 -5 17 -2 14 10 -2 9 -10 18 -18 21 -8 3 -12 1 -8 -3z" />
<path d="M3924 1197 c-7 -19 2 -37 19 -37 8 0 7 3 -2 9 -11 7 -10 10 4 12 17
4 17 5 2 18 -14 11 -18 11 -23 -2z" />
<path d="M4042 1185 c0 -16 2 -22 5 -12 2 9 2 23 0 30 -3 6 -5 -1 -5 -18z" />
<path d="M4064 1196 c-7 -18 3 -36 19 -36 7 0 6 4 -3 10 -13 8 -12 10 3 10 10
0 17 5 15 12 -7 19 -27 21 -34 4z" />
<path d="M3581 1184 c0 -11 3 -14 6 -6 3 7 2 16 -1 19 -3 4 -6 -2 -5 -13z" />
<path d="M3898 1175 c-3 -14 -1 -25 3 -25 5 0 9 11 9 25 0 14 -2 25 -4 25 -2
0 -6 -11 -8 -25z" />
<path d="M4010 1188 c0 -9 5 -20 10 -23 13 -8 13 5 0 25 -8 13 -10 13 -10 -2z" />
<path d="M3750 1097 c0 -15 4 -27 8 -27 10 0 9 36 -1 46 -4 4 -7 -5 -7 -19z" />
<path d="M3867 1113 c-22 -6 -18 -37 6 -41 12 -3 17 3 17 22 0 14 -1 25 -2 25
-2 -1 -11 -3 -21 -6z m13 -23 c0 -5 -4 -10 -10 -10 -5 0 -10 5 -10 10 0 6 5
10 10 10 6 0 10 -4 10 -10z" />
<path d="M3512 1093 c2 -9 10 -18 18 -20 13 -4 13 -3 0 6 -13 9 -12 11 3 11
10 0 15 5 12 10 -10 17 -37 11 -33 -7z" />
<path d="M3561 1086 c1 -17 2 -17 6 -3 2 9 9 17 15 17 5 0 8 -6 5 -14 -4 -9 4
-13 24 -14 16 0 29 4 29 9 0 6 -4 7 -10 4 -5 -3 -10 -2 -10 4 0 5 6 11 13 14
6 2 -7 4 -30 4 -38 0 -43 -2 -42 -21z" />
<path d="M3650 1089 c0 -14 5 -19 17 -17 26 5 29 38 4 38 -15 0 -21 -6 -21
-21z m30 1 c0 -5 -4 -10 -10 -10 -5 0 -10 5 -10 10 0 6 5 10 10 10 6 0 10 -4
10 -10z" />
<path d="M3701 1088 c1 -17 3 -18 6 -5 2 9 8 17 13 17 5 0 11 -8 14 -17 4 -14
4 -14 3 2 -3 30 -37 33 -36 3z" />
<path d="M3780 1090 c0 -11 2 -20 4 -20 2 0 6 9 9 20 3 11 1 20 -4 20 -5 0 -9
-9 -9 -20z" />
<path d="M3821 1093 c10 -11 10 -14 2 -9 -7 4 -13 2 -13 -3 0 -6 7 -11 15 -11
8 0 15 9 15 20 0 12 -7 20 -16 20 -14 0 -15 -2 -3 -17z" />
<path d="M3902 1093 c5 -26 38 -29 38 -4 0 15 -6 21 -21 21 -14 0 -19 -5 -17
-17z m28 -3 c0 -5 -4 -10 -10 -10 -5 0 -10 5 -10 10 0 6 5 10 10 10 6 0 10 -4
10 -10z" />
<path d="M149 374 c-9 -11 -9 -18 -1 -26 14 -14 42 -3 42 16 0 20 -27 27 -41
10z" />
<path d="M165 255 c-33 -33 -36 -119 -4 -159 l20 -26 629 0 c733 0 675 -9 675
105 0 114 58 105 -672 105 l-624 0 -24 -25z m558 -75 c-3 -11 -7 -20 -9 -20
-2 0 -4 9 -4 20 0 11 4 20 9 20 5 0 7 -9 4 -20z m120 -4 c-4 -6 1 -5 10 3 14
11 17 11 17 0 0 -9 3 -10 8 -4 12 16 32 16 32 0 0 -10 -11 -15 -35 -15 -19 0
-38 -1 -42 -2 -5 -2 -9 7 -11 19 -3 17 0 21 12 17 9 -3 13 -11 9 -18z m-33 -1
c0 -9 -11 -13 -30 -13 -16 1 -30 6 -30 13 0 7 14 12 30 13 19 0 30 -4 30 -13z" />
</g>
</svg>